<?xml version="1.0" standalone="no"?>
<!DOCTYPE svg PUBLIC "-//W3C//DTD SVG 20010904//EN"
 "http://www.w3.org/TR/2001/REC-SVG-20010904/DTD/svg10.dtd">
<svg version="1.0" xmlns="http://www.w3.org/2000/svg"
 width="512.000000pt" height="512.000000pt" viewBox="0 0 512.000000 512.000000"
 preserveAspectRatio="xMidYMid meet">
<metadata>
Created by potrace 1.11, written by Peter Selinger 2001-2013
</metadata>
<g transform="translate(0.000000,512.000000) scale(0.100000,-0.100000)"
fill="#000000" stroke="none">
<path d="M2475 5044 c-573 -89 -1445 -380 -1609 -537 l-45 -42 216 -567 216
-566 104 -7 c172 -12 403 9 623 55 220 47 403 109 607 205 195 93 452 253 453
284 0 7 -52 263 -115 568 -63 304 -115 562 -115 573 0 10 -10 26 -22 34 -29
20 -184 20 -313 0z"/>
<path d="M3410 3684 c-14 -2 -83 -11 -155 -20 -71 -9 -134 -20 -138 -24 -5 -4
1 -56 14 -116 l23 -107 -39 -35 c-281 -247 -1033 -501 -1482 -502 -104 0 -230
18 -248 36 -8 8 -26 53 -42 100 -15 48 -33 88 -39 91 -15 6 -258 -107 -386
-179 -122 -69 -178 -116 -178 -148 0 -82 209 -237 386 -286 l60 -16 -32 -97
c-194 -581 -45 -1237 380 -1678 227 -237 525 -406 827 -471 565 -122 1132 42
1534 443 192 193 345 452 420 710 49 172 60 254 59 480 0 179 -3 225 -22 314
-95 437 -319 787 -664 1034 l-77 54 26 38 c63 93 113 236 113 324 0 54 -22 61
-183 60 -73 -1 -143 -3 -157 -5z m100 -641 c83 -55 203 -158 260 -224 l50 -58
-20 -92 c-11 -51 -20 -108 -20 -127 0 -19 31 -130 69 -246 38 -116 80 -247 94
-291 39 -124 60 -153 134 -187 73 -33 73 -32 48 -183 -48 -299 -181 -563 -389
-771 -200 -200 -384 -311 -629 -380 -85 -24 -286 -59 -293 -51 -2 2 3 22 12
45 34 86 11 104 -211 163 -77 20 -190 52 -252 70 -137 40 -146 37 -198 -62
-20 -38 -40 -71 -45 -74 -5 -3 -42 13 -82 36 -313 182 -542 459 -652 791 -50
150 -68 245 -73 404 -8 200 21 379 89 557 l29 77 114 0 c212 0 449 33 715 100
85 21 168 43 183 49 21 8 29 8 32 -2 2 -6 11 -83 20 -169 18 -181 29 -246 43
-260 19 -19 456 -118 521 -118 16 0 38 8 49 18 28 24 272 463 272 489 0 5 -48
60 -106 123 -58 63 -119 131 -135 151 l-29 36 80 47 c44 26 117 76 162 111 46
35 88 64 93 64 6 1 35 -15 65 -36z"/>
<path d="M1578 1848 c-21 -16 -76 -213 -108 -386 -27 -144 -41 -115 128 -266
151 -135 180 -156 213 -156 34 0 190 61 345 135 78 36 114 59 119 74 7 23 -22
180 -61 331 -13 52 -24 103 -24 115 0 41 -22 96 -44 110 -47 31 -536 69 -568
43z"/>
<path d="M3227 1493 c-145 -191 -257 -362 -257 -396 0 -32 279 -370 310 -375
42 -7 481 192 499 227 7 13 14 111 18 250 7 279 10 272 -99 295 -168 35 -307
56 -365 56 l-62 0 -44 -57z"/>
</g>
</svg>
